<svg width="1015" height="206" viewBox="0 0 1015 206" fill="none" xmlns="http://www.w3.org/2000/svg">
<path d="M629.623 49.9103L629.623 19.1153C629.623 12.9765 634.599 8 640.738 8C646.877 8 651.853 12.9765 651.853 19.1153L651.853 49.9103" stroke="#D099FF" stroke-width="14.3389"/>
<path d="M763.001 49.9107L763.001 19.1157C763.001 12.9769 767.977 8.0004 774.116 8.0004C780.255 8.0004 785.232 12.9769 785.232 19.1157L785.232 49.9107" stroke="#D099FF" stroke-width="14.3389"/>
<path d="M807.464 156.089V186.884C807.464 193.023 802.488 197.999 796.349 197.999C790.21 197.999 785.233 193.023 785.233 186.884V48.4712" stroke="#D099FF" stroke-width="14.3389"/>
<path d="M718.547 89.7591L718.547 58.9642C718.547 52.8254 723.523 47.8488 729.662 47.8488C735.801 47.8488 740.777 52.8254 740.777 58.9642L740.777 89.7591" stroke="#D099FF" stroke-width="14.3389"/>
<path d="M763.01 47.7657V147.035C763.01 153.173 758.033 158.15 751.895 158.15C745.756 158.15 740.779 153.173 740.779 147.035V89.756" stroke="#D099FF" stroke-width="14.3389"/>
<path d="M674.083 89.7558L674.083 58.9609C674.083 52.8221 679.059 47.8456 685.198 47.8456C691.337 47.8456 696.313 52.8221 696.313 58.9609L696.313 89.7559" stroke="#D099FF" stroke-width="14.3389"/>
<path d="M718.535 82.0426V112.838C718.535 118.976 713.559 123.953 707.42 123.953C701.281 123.953 696.305 118.976 696.305 112.838V82.0426" stroke="#D099FF" stroke-width="14.3389"/>
<path d="M629.623 43.5635V186.885C629.623 193.023 624.646 198 618.507 198C612.369 198 607.392 193.023 607.392 186.885L607.392 49.8304" stroke="#D099FF" stroke-width="14.3389"/>
<path d="M674.083 73.2804V147.031C674.083 153.17 669.106 158.147 662.967 158.147C656.828 158.147 651.852 153.17 651.852 147.031V30.8572" stroke="#D099FF" stroke-width="14.3389"/>
<path d="M385.085 49.9103L385.085 19.1153C385.085 12.9765 380.108 8 373.969 8C367.831 8 362.854 12.9765 362.854 19.1153L362.854 49.9103" stroke="#D099FF" stroke-width="14.3389"/>
<path d="M251.707 49.9108L251.707 19.1159C251.707 12.977 246.73 8.00052 240.591 8.00052C234.452 8.00052 229.476 12.977 229.476 19.1159L229.476 49.9108" stroke="#D099FF" stroke-width="14.3389"/>
<path d="M207.244 156.089V186.884C207.244 193.023 212.22 197.999 218.359 197.999C224.498 197.999 229.474 193.023 229.474 186.884L229.474 48.4713" stroke="#D099FF" stroke-width="14.3389"/>
<path d="M296.161 89.7591L296.161 58.9642C296.161 52.8254 291.184 47.8488 285.046 47.8488C278.907 47.8488 273.93 52.8254 273.93 58.9642L273.93 89.7591" stroke="#D099FF" stroke-width="14.3389"/>
<path d="M251.698 47.7657V147.035C251.698 153.173 256.674 158.15 262.813 158.15C268.952 158.15 273.928 153.173 273.928 147.035V89.756" stroke="#D099FF" stroke-width="14.3389"/>
<path d="M340.625 89.7559L340.625 58.9609C340.625 52.8221 335.648 47.8456 329.51 47.8456C323.371 47.8456 318.394 52.8221 318.394 58.9609L318.394 89.7559" stroke="#D099FF" stroke-width="14.3389"/>
<path d="M296.172 82.0426V112.838C296.172 118.976 301.148 123.953 307.287 123.953C313.426 123.953 318.402 118.976 318.402 112.838V82.0426" stroke="#D099FF" stroke-width="14.3389"/>
<path d="M385.085 43.5635V186.885C385.085 193.023 390.061 198 396.2 198C402.339 198 407.316 193.023 407.316 186.885L407.316 49.8304" stroke="#D099FF" stroke-width="14.3389"/>
<path d="M340.625 73.2804V147.031C340.625 153.17 345.601 158.147 351.74 158.147C357.879 158.147 362.856 153.17 362.856 147.031V30.8573" stroke="#D099FF" stroke-width="14.3389"/>
<path d="M562.932 135.135L562.932 165.93C562.932 172.069 567.909 177.045 574.047 177.045C580.186 177.045 585.163 172.069 585.163 165.93L585.163 135.135" stroke="#D099FF" stroke-width="14.3389"/>
<path d="M607.395 72.7673V41.9723C607.395 35.8335 602.419 30.857 596.28 30.857C590.141 30.857 585.165 35.8335 585.165 41.9723L585.165 151.867" stroke="#D099FF" stroke-width="14.3389"/>
<path d="M451.78 135.135L451.78 165.93C451.78 172.069 446.803 177.045 440.664 177.045C434.526 177.045 429.549 172.069 429.549 165.93L429.549 135.135" stroke="#D099FF" stroke-width="14.3389"/>
<path d="M407.317 72.7673V41.9723C407.317 35.8335 412.293 30.857 418.432 30.857C424.571 30.857 429.547 35.8335 429.547 41.9723L429.547 151.867" stroke="#D099FF" stroke-width="14.3389"/>
<path d="M518.478 116.24L518.478 147.035C518.478 153.174 523.454 158.151 529.593 158.151C535.732 158.151 540.708 153.174 540.708 147.035L540.708 116.24" stroke="#D099FF" stroke-width="14.3389"/>
<path d="M562.941 158.234V58.9649C562.941 52.8261 557.964 47.8495 551.826 47.8495C545.687 47.8495 540.71 52.8261 540.71 58.9649V116.243" stroke="#D099FF" stroke-width="14.3389"/>
<path d="M496.23 116.24L496.23 147.035C496.23 153.174 491.253 158.151 485.114 158.151C478.976 158.151 473.999 153.174 473.999 147.035L473.999 116.24" stroke="#D099FF" stroke-width="14.3389"/>
<path d="M451.767 158.234V58.965C451.767 52.8262 456.743 47.8497 462.882 47.8497C469.021 47.8497 473.997 52.8262 473.997 58.965V116.244" stroke="#D099FF" stroke-width="14.3389"/>
<path d="M518.466 123.958V93.1628C518.466 87.024 513.489 82.0475 507.35 82.0475C501.211 82.0475 496.235 87.024 496.235 93.1628V123.958" stroke="#D099FF" stroke-width="14.3389"/>
<path d="M829.685 156.09V186.885C829.685 193.023 834.662 198 840.801 198C846.94 198 851.916 193.023 851.916 186.885V156.09" stroke="#D099FF" stroke-width="14.3389"/>
<path d="M963.063 156.089V186.884C963.063 193.023 968.039 197.999 974.178 197.999C980.317 197.999 985.294 193.023 985.294 186.884V156.089" stroke="#D099FF" stroke-width="14.3389"/>
<path d="M1007.53 49.911L1007.53 19.1161C1007.53 12.9773 1002.55 8.00075 996.411 8.00075C990.272 8.00075 985.295 12.9773 985.295 19.1161L985.295 157.529" stroke="#D099FF" stroke-width="14.3389"/>
<path d="M918.609 116.241V147.036C918.609 153.175 923.585 158.151 929.724 158.151C935.863 158.151 940.839 153.175 940.839 147.036V116.241" stroke="#D099FF" stroke-width="14.3389"/>
<path d="M963.072 158.234L963.072 58.9654C963.072 52.8266 958.095 47.8501 951.956 47.8501C945.818 47.8501 940.841 52.8266 940.841 58.9654L940.841 116.244" stroke="#D099FF" stroke-width="14.3389"/>
<path d="M874.149 116.244V147.039C874.149 153.178 879.125 158.154 885.264 158.154C891.403 158.154 896.379 153.178 896.379 147.039V116.244" stroke="#D099FF" stroke-width="14.3389"/>
<path d="M918.598 123.957L918.598 93.1624C918.598 87.0236 913.622 82.0471 907.483 82.0471C901.344 82.0471 896.367 87.0236 896.367 93.1624L896.367 123.957" stroke="#D099FF" stroke-width="14.3389"/>
<path d="M829.685 162.436L829.685 19.1153C829.685 12.9765 824.709 8 818.57 8C812.431 8 807.455 12.9765 807.455 19.1153L807.455 156.17" stroke="#D099FF" stroke-width="14.3389"/>
<path d="M874.149 132.72L874.149 58.9687C874.149 52.8299 869.172 47.8534 863.033 47.8534C856.895 47.8534 851.918 52.8299 851.918 58.9687L851.918 175.143" stroke="#D099FF" stroke-width="14.3389"/>
<path d="M185.016 156.09V186.885C185.016 193.023 180.039 198 173.901 198C167.762 198 162.785 193.023 162.785 186.885V156.09" stroke="#D099FF" stroke-width="14.3389"/>
<path d="M51.6385 156.089V186.884C51.6385 193.023 46.662 198 40.5232 198C34.3844 198 29.4079 193.023 29.4079 186.884V156.089" stroke="#D099FF" stroke-width="14.3389"/>
<path d="M7.1753 49.9111L7.17529 19.1161C7.17529 12.9773 12.1518 8.00081 18.2906 8.00081C24.4295 8.00081 29.406 12.9773 29.406 19.1161L29.406 157.529" stroke="#D099FF" stroke-width="14.3389"/>
<path d="M96.0928 116.241V147.036C96.0928 153.175 91.1163 158.151 84.9774 158.151C78.8386 158.151 73.8621 153.175 73.8621 147.036V116.241" stroke="#D099FF" stroke-width="14.3389"/>
<path d="M51.6296 158.234L51.6296 58.9654C51.6296 52.8266 56.6061 47.8501 62.745 47.8501C68.8838 47.8501 73.8603 52.8266 73.8603 58.9654L73.8603 116.244" stroke="#D099FF" stroke-width="14.3389"/>
<path d="M140.552 116.244V147.039C140.552 153.178 135.575 158.154 129.437 158.154C123.298 158.154 118.321 153.178 118.321 147.039V116.244" stroke="#D099FF" stroke-width="14.3389"/>
<path d="M96.1026 123.957L96.1026 93.1624C96.1026 87.0236 101.079 82.0471 107.218 82.0471C113.357 82.0471 118.333 87.0236 118.333 93.1624L118.333 123.957" stroke="#D099FF" stroke-width="14.3389"/>
<path d="M185.016 162.436L185.016 19.1153C185.016 12.9765 189.992 8 196.131 8C202.27 8 207.246 12.9765 207.246 19.1153L207.247 156.17" stroke="#D099FF" stroke-width="14.3389"/>
<path d="M140.552 132.72L140.552 58.9687C140.552 52.8299 145.528 47.8534 151.667 47.8534C157.806 47.8534 162.783 52.8299 162.783 58.9687L162.783 175.143" stroke="#D099FF" stroke-width="14.3389"/>
</svg>
