<svg width="1920" height="227" viewBox="0 0 1920 227" fill="none" xmlns="http://www.w3.org/2000/svg">
<path d="M1204.72 98.8206L1204.72 37.2307C1204.72 24.953 1214.67 15 1226.95 15C1239.22 15 1249.18 24.953 1249.18 37.2307L1249.18 98.8206" stroke="#D099FF" stroke-width="28.6778"/>
<path d="M1471.47 98.8213L1471.47 37.2314C1471.47 24.9537 1481.42 15.0007 1493.7 15.0007C1505.98 15.0007 1515.93 24.9537 1515.93 37.2314L1515.93 98.8213" stroke="#D099FF" stroke-width="28.6778"/>
<path d="M1560.4 311.178V372.768C1560.4 385.045 1550.45 394.998 1538.17 394.998C1525.89 394.998 1515.94 385.045 1515.94 372.768V95.9423" stroke="#D099FF" stroke-width="28.6778"/>
<path d="M1382.56 178.518L1382.56 116.928C1382.56 104.651 1392.52 94.6976 1404.79 94.6976C1417.07 94.6976 1427.02 104.651 1427.02 116.928L1427.02 178.518" stroke="#D099FF" stroke-width="28.6778"/>
<path d="M1471.49 94.5314V293.069C1471.49 305.347 1461.54 315.3 1449.26 315.3C1436.98 315.3 1427.03 305.347 1427.03 293.069V178.512" stroke="#D099FF" stroke-width="28.6778"/>
<path d="M1293.64 178.512L1293.64 116.922C1293.64 104.644 1303.59 94.691 1315.87 94.691C1328.14 94.691 1338.1 104.644 1338.1 116.922L1338.1 178.512" stroke="#D099FF" stroke-width="28.6778"/>
<path d="M1382.54 163.085V224.675C1382.54 236.953 1372.59 246.906 1360.31 246.906C1348.03 246.906 1338.08 236.953 1338.08 224.675V163.085" stroke="#D099FF" stroke-width="28.6778"/>
<path d="M1204.72 86.127V372.769C1204.72 385.047 1194.76 395 1182.48 395C1170.21 395 1160.25 385.047 1160.25 372.769L1160.25 98.6608" stroke="#D099FF" stroke-width="28.6778"/>
<path d="M1293.64 145.561V293.063C1293.64 305.34 1283.68 315.293 1271.4 315.293C1259.13 315.293 1249.17 305.34 1249.17 293.063V60.7144" stroke="#D099FF" stroke-width="28.6778"/>
<path d="M715.64 98.8206L715.64 37.2307C715.64 24.953 705.687 15 693.409 15C681.131 15 671.178 24.953 671.178 37.2307L671.178 98.8206" stroke="#D099FF" stroke-width="28.6778"/>
<path d="M448.883 98.8216L448.883 37.2317C448.883 24.954 438.93 15.001 426.653 15.001C414.375 15.001 404.422 24.954 404.422 37.2317L404.422 98.8216" stroke="#D099FF" stroke-width="28.6778"/>
<path d="M359.957 311.178V372.768C359.957 385.046 369.91 394.999 382.188 394.999C394.465 394.999 404.418 385.046 404.418 372.768L404.418 95.9426" stroke="#D099FF" stroke-width="28.6778"/>
<path d="M537.792 178.518L537.792 116.928C537.792 104.651 527.839 94.6977 515.561 94.6977C503.283 94.6977 493.33 104.651 493.33 116.928L493.33 178.518" stroke="#D099FF" stroke-width="28.6778"/>
<path d="M448.865 94.5314V293.069C448.865 305.347 458.818 315.3 471.096 315.3C483.374 315.3 493.327 305.347 493.327 293.069V178.512" stroke="#D099FF" stroke-width="28.6778"/>
<path d="M626.72 178.512L626.72 116.922C626.72 104.644 616.767 94.6912 604.489 94.6912C592.211 94.6912 582.258 104.644 582.258 116.922L582.258 178.512" stroke="#D099FF" stroke-width="28.6778"/>
<path d="M537.813 163.085V224.675C537.813 236.953 547.766 246.906 560.044 246.906C572.321 246.906 582.274 236.953 582.274 224.675V163.085" stroke="#D099FF" stroke-width="28.6778"/>
<path d="M715.64 86.1271V372.769C715.64 385.047 725.593 395 737.87 395C750.148 395 760.101 385.047 760.101 372.769L760.101 98.6608" stroke="#D099FF" stroke-width="28.6778"/>
<path d="M626.72 145.561V293.063C626.72 305.34 636.673 315.293 648.95 315.293C661.228 315.293 671.181 305.34 671.181 293.063V60.7145" stroke="#D099FF" stroke-width="28.6778"/>
<path d="M1160.26 144.535V82.9446C1160.26 70.6669 1150.31 60.7139 1138.03 60.7139C1125.75 60.7139 1115.8 70.6669 1115.8 82.9446L1115.8 302.735" stroke="#D099FF" stroke-width="28.6778"/>
<path d="M760.103 144.535V82.9446C760.103 70.6669 770.056 60.7139 782.334 60.7139C794.611 60.7139 804.564 70.6669 804.564 82.9446L804.564 302.735" stroke="#D099FF" stroke-width="28.6778"/>
<path d="M1071.35 315.468V116.93C1071.35 104.652 1061.4 94.6991 1049.12 94.6991C1036.84 94.6991 1026.89 104.652 1026.89 116.93V231.487" stroke="#D099FF" stroke-width="28.6778"/>
<path d="M849.003 315.468V116.93C849.003 104.652 858.956 94.6993 871.234 94.6993C883.512 94.6993 893.465 104.652 893.465 116.93V231.487" stroke="#D099FF" stroke-width="28.6778"/>
<path d="M982.401 246.916V185.326C982.401 173.048 972.448 163.095 960.17 163.095C947.893 163.095 937.94 173.048 937.94 185.326V246.916" stroke="#D099FF" stroke-width="28.6778"/>
<path d="M1960.52 98.8221L1960.52 37.2322C1960.52 24.9545 1950.57 15.0015 1938.29 15.0015C1926.01 15.0015 1916.06 24.9545 1916.06 37.2322L1916.06 314.058" stroke="#D099FF" stroke-width="28.6778"/>
<path d="M1871.61 315.469L1871.61 116.931C1871.61 104.653 1861.66 94.7002 1849.38 94.7002C1837.11 94.7002 1827.15 104.653 1827.15 116.931L1827.15 231.488" stroke="#D099FF" stroke-width="28.6778"/>
<path d="M1782.67 246.915L1782.67 185.325C1782.67 173.047 1772.71 163.094 1760.44 163.094C1748.16 163.094 1738.2 173.047 1738.2 185.325L1738.2 246.915" stroke="#D099FF" stroke-width="28.6778"/>
<path d="M1604.84 323.873L1604.84 37.2307C1604.84 24.953 1594.89 15 1582.61 15C1570.33 15 1560.38 24.953 1560.38 37.2307L1560.38 311.339" stroke="#D099FF" stroke-width="28.6778"/>
<path d="M1693.77 264.439L1693.77 116.937C1693.77 104.66 1683.81 94.7067 1671.54 94.7067C1659.26 94.7067 1649.31 104.66 1649.31 116.937L1649.31 349.286" stroke="#D099FF" stroke-width="28.6778"/>
<path d="M-40.1794 98.8223L-40.1794 37.2323C-40.1794 24.9547 -30.2264 15.0016 -17.9488 15.0016C-5.6711 15.0016 4.28192 24.9547 4.28192 37.2323L4.28194 314.058" stroke="#D099FF" stroke-width="28.6778"/>
<path d="M48.7293 315.469L48.7292 116.931C48.7292 104.653 58.6823 94.7002 70.9599 94.7002C83.2376 94.7002 93.1906 104.653 93.1906 116.931L93.1906 231.488" stroke="#D099FF" stroke-width="28.6778"/>
<path d="M137.675 246.915L137.675 185.325C137.675 173.047 147.628 163.094 159.906 163.094C172.183 163.094 182.136 173.047 182.136 185.325L182.136 246.915" stroke="#D099FF" stroke-width="28.6778"/>
<path d="M315.502 323.873L315.502 37.2307C315.502 24.953 325.455 15 337.732 15C350.01 15 359.963 24.953 359.963 37.2307L359.963 311.339" stroke="#D099FF" stroke-width="28.6778"/>
<path d="M226.574 264.439L226.574 116.937C226.574 104.66 236.527 94.7067 248.805 94.7067C261.082 94.7067 271.035 104.66 271.035 116.937L271.035 349.286" stroke="#D099FF" stroke-width="28.6778"/>
</svg>
