<svg width="250" height="78" viewBox="0 0 250 78" fill="none" xmlns="http://www.w3.org/2000/svg">
<g clip-path="url(#clip0_1_788)">
<path d="M38.3479 0.652161H211.652C232.832 0.652161 250 17.8205 250 39C250 60.1796 232.832 77.3479 211.652 77.3479H38.3479C17.1683 77.3454 0 60.177 0 39C0 17.8205 17.1683 0.652161 38.3479 0.652161Z" fill="#E2FE01"/>
<path d="M38.3655 54.1485C35.7517 54.1485 33.5148 53.6257 31.6424 52.5902C29.77 51.5548 28.34 50.1649 27.3547 48.4282C26.372 46.6941 25.8694 44.7689 25.8694 42.6577V27.9474H32.7483V42.6477C32.7483 43.6831 32.9996 44.6332 33.4997 45.4801C34.0024 46.3372 34.681 47.0057 35.528 47.5084C36.375 48.011 37.325 48.2624 38.3605 48.2624C39.3959 48.2624 40.346 48.011 41.1929 47.5084C42.05 47.0057 42.7185 46.3271 43.2212 45.4801C43.7238 44.6231 43.9727 43.6831 43.9727 42.6477V27.9474H50.8515V42.6477C50.8515 44.7588 50.3614 46.684 49.3662 48.4182C48.3835 50.1549 46.961 51.5447 45.1011 52.5802C43.2413 53.6157 40.9919 54.1384 38.3479 54.1384L38.3579 54.1485H38.3655Z" fill="#404038"/>
<path d="M74.1849 36.8369C74.1849 34.6629 73.745 32.886 72.8779 31.4937C72.0109 30.1038 70.8598 29.0683 69.4372 28.3772C68.0147 27.6885 66.4364 27.3517 64.6896 27.3517C62.9429 27.3517 61.3645 27.6961 59.9219 28.3772C58.4793 29.0683 57.3407 30.1013 56.4837 31.4937C55.6267 32.8835 55.2095 34.6604 55.2095 36.8369V53.5428H62.0884V35.8316C62.0884 35.3289 62.204 34.8916 62.4427 34.5046C62.674 34.1175 62.9982 33.8134 63.3953 33.5747C63.7924 33.3434 64.2322 33.2203 64.7022 33.2203C65.1722 33.2203 65.602 33.3359 66.0091 33.5747C66.4062 33.8059 66.7304 34.1175 66.9616 34.5046C67.1929 34.8916 67.3185 35.3315 67.3185 35.8316V44.0074H74.1974V36.8344H74.1874L74.1849 36.8369Z" fill="#404038"/>
<path d="M44.0003 27.9499V42.6502C44.0003 43.6856 43.749 44.6256 43.2489 45.4826C42.7462 46.3296 42.0777 47.0082 41.2206 47.5109C40.3736 48.0135 39.411 48.2623 38.3781 48.2623C37.3451 48.2623 36.3825 48.011 35.5355 47.5109C34.6785 47.0082 34.01 46.3296 33.5073 45.4826C33.0047 44.6256 32.7558 43.6856 32.7558 42.6502V27.9499H25.877V42.6502C25.877 44.7613 26.3696 46.6865 27.3623 48.4207C28.345 50.1574 29.7675 51.5472 31.6274 52.5827C33.4872 53.6182 35.7366 54.1409 38.3806 54.1409C41.0246 54.1409 43.274 53.6182 45.1338 52.5827C46.9937 51.5472 48.4162 50.1574 49.3989 48.4207C50.3916 46.684 50.8842 44.7613 50.8842 42.6502V27.9499H44.0054H44.0003Z" fill="#404038"/>
<path d="M74.2051 36.8369C74.2051 34.6629 73.7653 32.886 72.8982 31.4937C72.0311 30.1038 70.88 29.0683 69.4575 28.3772C68.035 27.6885 66.4566 27.3517 64.7099 27.3517C62.9631 27.3517 61.3848 27.6961 59.9422 28.3772C58.4995 29.0683 57.361 30.1013 56.504 31.4937C55.6469 32.8835 55.2297 34.6604 55.2297 36.8369V53.5428H62.1086V35.8316C62.1086 35.3289 62.2242 34.8916 62.463 34.5046C62.6942 34.1175 63.0184 33.8134 63.4155 33.5747C63.8126 33.3434 64.2525 33.2203 64.7225 33.2203C65.1924 33.2203 65.6222 33.3359 66.0294 33.5747C66.4265 33.8059 66.7507 34.1175 66.9819 34.5046C67.2131 34.8916 67.3388 35.3315 67.3388 35.8316V44.0074H74.2177V36.8344H74.2076L74.2051 36.8369Z" fill="#404038"/>
<path d="M171.967 24.8962C170.796 24.8962 169.783 24.4664 168.936 23.6219C168.089 22.7749 167.659 21.762 167.659 20.5908C167.659 19.4195 168.089 18.4066 168.936 17.5596C169.783 16.7126 170.796 16.2853 171.967 16.2853C173.138 16.2853 174.151 16.7151 174.998 17.5596C175.855 18.4167 176.275 19.4195 176.275 20.5908C176.275 21.762 175.845 22.7749 174.998 23.6219C174.141 24.479 173.138 24.8962 171.967 24.8962ZM168.506 53.5537V27.9499H175.428V53.5437H168.506V53.5537Z" fill="#404038"/>
<path d="M139.159 53.5428V38.8425C139.159 36.7314 139.651 34.8062 140.644 33.072C141.627 31.3378 143.059 29.9455 144.929 28.91C146.802 27.8745 149.049 27.3517 151.652 27.3517C154.256 27.3517 156.546 27.8745 158.406 28.91C160.265 29.9455 161.688 31.3353 162.671 33.072C163.653 34.8062 164.156 36.7314 164.156 38.8425V53.5428H157.277V38.8425C157.277 37.8071 157.026 36.857 156.526 36.01C156.023 35.153 155.344 34.4845 154.497 33.9818C153.64 33.4792 152.7 33.2278 151.665 33.2278C150.629 33.2278 149.679 33.4792 148.832 33.9818C147.975 34.4845 147.307 35.1631 146.804 36.01C146.301 36.8671 146.053 37.8071 146.053 38.8425V53.5428H139.164H139.159Z" fill="#404038"/>
<path d="M180.281 53.5428V47.6667H193.624C194.022 47.6667 194.388 47.5838 194.7 47.4154C195.014 47.2495 195.266 47.0183 195.452 46.7142C195.64 46.41 195.723 46.0758 195.723 45.7113C195.723 45.3142 195.63 44.9599 195.452 44.6558C195.273 44.3517 195.012 44.1129 194.7 43.9244C194.386 43.7359 194.022 43.653 193.624 43.653H188.804C187.163 43.653 185.687 43.3916 184.36 42.8789C183.043 42.3561 181.988 41.5192 181.204 40.3706C180.42 39.222 180.022 37.704 180.022 35.8341C180.022 34.3915 180.377 33.0846 181.101 31.8933C181.822 30.7019 182.795 29.7494 184.006 29.0281C185.23 28.3068 186.577 27.9499 188.042 27.9499H200.785V33.826H188.691C188.188 33.826 187.751 33.9944 187.364 34.3286C186.977 34.6629 186.788 35.1027 186.788 35.6355C186.788 36.1684 186.977 36.6182 187.344 36.9626C187.711 37.3195 188.158 37.4853 188.703 37.4853H193.524C195.364 37.4853 196.952 37.7568 198.292 38.3122C199.631 38.8651 200.664 39.7247 201.408 40.8934C202.139 42.0646 202.516 43.6002 202.516 45.5153C202.516 46.9906 202.15 48.3377 201.408 49.5517C200.667 50.7756 199.684 51.7483 198.45 52.457C197.216 53.1783 195.826 53.5352 194.288 53.5352H181.136L180.286 53.5453L180.281 53.5428Z" fill="#404038"/>
<path d="M217.239 37.4855V45.6615C217.239 46.1642 217.114 46.6015 216.885 46.9886C216.654 47.3756 216.329 47.6898 215.932 47.9185C215.525 48.1598 215.095 48.2754 214.625 48.2754C214.155 48.2754 213.716 48.1497 213.318 47.9185C212.921 47.6772 212.597 47.3756 212.366 46.9886C212.157 46.6543 212.049 46.2773 212.022 45.8601V33.7054H224.108V27.8291H212.022V21.5205H205.143L205.13 44.6587C205.13 46.8327 205.547 48.6097 206.404 50.0021C207.261 51.392 208.402 52.4275 209.843 53.1187C211.285 53.7973 212.864 54.1441 214.61 54.1441C216.357 54.1441 217.935 53.8099 219.358 53.1187C220.78 52.43 221.929 51.3945 222.799 50.0021C223.666 48.6122 224.106 46.8352 224.106 44.6587H224.116V37.4855H217.237H217.239Z" fill="#404038"/>
<path d="M121.352 48.2774C122.691 48.2774 123.843 47.9432 124.815 47.2746C125.788 46.6061 126.532 45.6963 127.055 44.5376C127.577 43.3891 127.829 42.1023 127.829 40.7024C127.829 39.3024 127.567 38.0383 127.055 36.9198C126.532 35.8014 125.788 34.9042 124.815 34.2331C123.843 33.5646 122.691 33.2303 121.349 33.2303C120.007 33.2303 118.796 33.5646 117.811 34.2331C116.828 34.9017 116.074 35.8014 115.551 36.9198C115.028 38.0383 114.777 39.3024 114.777 40.7024C114.777 42.1023 115.039 43.3866 115.551 44.5376C116.074 45.6862 116.828 46.6061 117.813 47.2746C118.796 47.9432 119.98 48.2774 121.352 48.2774ZM119.389 54.151H119.399C117.057 54.151 115.018 53.5453 113.272 52.3439C111.535 51.1426 110.188 49.5215 109.235 47.5058C108.283 45.4776 107.803 43.2533 107.803 40.8079C107.803 38.3625 108.346 36.0226 109.434 33.9843C110.522 31.946 112.088 30.3275 114.126 29.1462C116.164 27.965 118.61 27.3693 121.455 27.3693C124.3 27.3693 126.756 27.975 128.731 29.1764C130.706 30.3777 132.212 32.0089 133.247 34.0446C134.283 36.0829 134.806 38.3399 134.806 40.8155V53.5553H127.929V50.0392H127.824C127.324 50.7983 126.695 51.497 125.944 52.1152C125.192 52.7335 124.282 53.2286 123.209 53.6006C122.144 53.9726 120.869 54.1485 119.399 54.1485H119.409" fill="#404038"/>
<path d="M91.5267 33.2405C90.1871 33.2405 89.036 33.5748 88.0633 34.2434C87.0907 34.9119 86.3468 35.8218 85.824 36.9805C85.3012 38.1291 85.0499 39.4159 85.0499 40.8159C85.0499 42.2158 85.3113 43.48 85.824 44.5985C86.3468 45.717 87.0907 46.6142 88.0633 47.2853C89.036 47.9539 90.1871 48.2881 91.5292 48.2881C92.8713 48.2881 94.0827 47.9539 95.0679 47.2853C96.0506 46.6167 96.8046 45.717 97.3274 44.5985C97.8501 43.48 98.1014 42.2158 98.1014 40.8159C98.1014 39.4159 97.8401 38.1316 97.3274 36.9805C96.8046 35.8318 96.0506 34.9119 95.0654 34.2434C94.0827 33.5748 92.8989 33.2405 91.5267 33.2405ZM93.4896 27.3668H93.4795C95.8219 27.3668 97.8602 27.9725 99.6069 29.1739C101.344 30.3753 102.691 31.9964 103.643 34.0122C104.596 36.0404 105.076 38.2648 105.076 40.7103C105.076 43.1558 104.533 45.4958 103.445 47.5341C102.356 49.5725 100.791 51.1911 98.7524 52.3724C96.7141 53.5537 94.2687 54.1493 91.4236 54.1493C88.5811 54.1493 86.1231 53.5436 84.1476 52.3422C82.1722 51.1408 80.6667 49.5096 79.6312 47.4738C78.5958 45.4355 78.073 43.1784 78.073 40.7028V16.9111H84.9494V27.9625V31.4787H85.0549C85.5551 30.7196 86.1834 30.0209 86.9349 29.4026C87.6863 28.7843 88.5962 28.2892 89.6693 27.9172C90.735 27.5452 92.0092 27.3693 93.4795 27.3693H93.4694" fill="#404038"/>
</g>
<defs>
<clipPath id="clip0_1_788">
<rect width="250" height="76.6957" fill="white" transform="translate(0 0.652161)"/>
</clipPath>
</defs>
</svg>
