<svg width="1920" height="195" viewBox="0 0 1920 195" fill="none" xmlns="http://www.w3.org/2000/svg">
<path d="M1560.4 96.1777V157.768C1560.4 170.045 1550.44 179.998 1538.17 179.998C1525.89 179.998 1515.94 170.045 1515.94 157.768V-119.058" stroke="#D099FF" stroke-width="28.6778"/>
<path d="M1471.49 -120.469V78.0692C1471.49 90.3468 1461.54 100.3 1449.26 100.3C1436.98 100.3 1427.03 90.3468 1427.03 78.0692V-36.488" stroke="#D099FF" stroke-width="28.6778"/>
<path d="M1382.54 -51.9147V9.6752C1382.54 21.9529 1372.59 31.9059 1360.31 31.9059C1348.03 31.9059 1338.08 21.9529 1338.08 9.6752V-51.9147" stroke="#D099FF" stroke-width="28.6778"/>
<path d="M1204.72 -128.873V157.769C1204.72 170.047 1194.76 180 1182.48 180C1170.21 180 1160.25 170.047 1160.25 157.769L1160.25 -116.339" stroke="#D099FF" stroke-width="28.6778"/>
<path d="M1293.64 -69.4393V78.0626C1293.64 90.3402 1283.68 100.293 1271.4 100.293C1259.13 100.293 1249.17 90.3402 1249.17 78.0626V-154.286" stroke="#D099FF" stroke-width="28.6778"/>
<path d="M359.957 96.178V157.768C359.957 170.046 369.91 179.999 382.187 179.999C394.465 179.999 404.418 170.046 404.418 157.768L404.418 -119.057" stroke="#D099FF" stroke-width="28.6778"/>
<path d="M448.865 -120.469V78.0692C448.865 90.3469 458.818 100.3 471.096 100.3C483.374 100.3 493.327 90.3469 493.327 78.0692V-36.4879" stroke="#D099FF" stroke-width="28.6778"/>
<path d="M537.813 -51.9147V9.67524C537.813 21.9529 547.766 31.9059 560.043 31.9059C572.321 31.9059 582.274 21.9529 582.274 9.67524V-51.9147" stroke="#D099FF" stroke-width="28.6778"/>
<path d="M715.639 -128.873V157.769C715.639 170.047 725.592 180 737.87 180C750.148 180 760.101 170.047 760.101 157.769L760.101 -116.339" stroke="#D099FF" stroke-width="28.6778"/>
<path d="M626.72 -69.4392V78.0627C626.72 90.3403 636.673 100.293 648.95 100.293C661.228 100.293 671.181 90.3403 671.181 78.0627V-154.285" stroke="#D099FF" stroke-width="28.6778"/>
<path d="M1071.33 54.2698L1071.33 115.86C1071.33 128.137 1081.29 138.09 1093.56 138.09C1105.84 138.09 1115.8 128.137 1115.8 115.86L1115.8 54.2698" stroke="#D099FF" stroke-width="28.6778"/>
<path d="M1160.26 -70.4655V-132.055C1160.26 -144.333 1150.31 -154.286 1138.03 -154.286C1125.75 -154.286 1115.8 -144.333 1115.8 -132.055L1115.8 87.7349" stroke="#D099FF" stroke-width="28.6778"/>
<path d="M849.029 54.2698L849.029 115.86C849.029 128.137 839.076 138.09 826.799 138.09C814.521 138.09 804.568 128.137 804.568 115.86L804.568 54.2698" stroke="#D099FF" stroke-width="28.6778"/>
<path d="M760.103 -70.4655V-132.055C760.103 -144.333 770.056 -154.286 782.333 -154.286C794.611 -154.286 804.564 -144.333 804.564 -132.055L804.564 87.7349" stroke="#D099FF" stroke-width="28.6778"/>
<path d="M982.425 16.4807L982.425 78.0706C982.425 90.3483 992.378 100.301 1004.66 100.301C1016.93 100.301 1026.89 90.3483 1026.89 78.0706L1026.89 16.4807" stroke="#D099FF" stroke-width="28.6778"/>
<path d="M1071.35 100.468V-98.0702C1071.35 -110.348 1061.4 -120.301 1049.12 -120.301C1036.84 -120.301 1026.89 -110.348 1026.89 -98.0702V16.4869" stroke="#D099FF" stroke-width="28.6778"/>
<path d="M937.929 16.4809L937.929 78.0708C937.929 90.3485 927.976 100.301 915.699 100.301C903.421 100.301 893.468 90.3485 893.468 78.0708L893.468 16.4809" stroke="#D099FF" stroke-width="28.6778"/>
<path d="M849.003 100.468V-98.07C849.003 -110.348 858.956 -120.301 871.234 -120.301C883.511 -120.301 893.464 -110.348 893.464 -98.07V16.4871" stroke="#D099FF" stroke-width="28.6778"/>
<path d="M982.401 31.9155V-29.6744C982.401 -41.9521 972.448 -51.9051 960.17 -51.9051C947.893 -51.9051 937.94 -41.9521 937.94 -29.6744V31.9155" stroke="#D099FF" stroke-width="28.6778"/>
<path d="M1604.84 96.1794V157.769C1604.84 170.047 1614.79 180 1627.07 180C1639.35 180 1649.3 170.047 1649.3 157.769V96.1794" stroke="#D099FF" stroke-width="28.6778"/>
<path d="M1871.6 96.1784V157.768C1871.6 170.046 1881.55 179.999 1893.83 179.999C1906.1 179.999 1916.06 170.046 1916.06 157.768V96.1784" stroke="#D099FF" stroke-width="28.6778"/>
<path d="M1960.52 -116.178L1960.52 -177.768C1960.52 -190.045 1950.57 -199.998 1938.29 -199.998C1926.01 -199.998 1916.06 -190.045 1916.06 -177.768L1916.06 99.0575" stroke="#D099FF" stroke-width="28.6778"/>
<path d="M1782.69 16.4818V78.0717C1782.69 90.3494 1792.64 100.302 1804.92 100.302C1817.2 100.302 1827.15 90.3494 1827.15 78.0717V16.4818" stroke="#D099FF" stroke-width="28.6778"/>
<path d="M1871.61 100.469L1871.61 -98.0691C1871.61 -110.347 1861.66 -120.3 1849.38 -120.3C1837.1 -120.3 1827.15 -110.347 1827.15 -98.0691L1827.15 16.488" stroke="#D099FF" stroke-width="28.6778"/>
<path d="M1693.77 16.4883V78.0783C1693.77 90.3559 1703.72 100.309 1716 100.309C1728.28 100.309 1738.23 90.3559 1738.23 78.0783V16.4883" stroke="#D099FF" stroke-width="28.6778"/>
<path d="M1782.67 31.9147L1782.67 -29.6752C1782.67 -41.9528 1772.71 -51.9059 1760.43 -51.9059C1748.16 -51.9059 1738.2 -41.9528 1738.2 -29.6752L1738.2 31.9147" stroke="#D099FF" stroke-width="28.6778"/>
<path d="M1604.84 108.873L1604.84 -177.769C1604.84 -190.047 1594.89 -200 1582.61 -200C1570.33 -200 1560.38 -190.047 1560.38 -177.769L1560.38 96.3392" stroke="#D099FF" stroke-width="28.6778"/>
<path d="M1693.77 49.4392L1693.77 -98.0626C1693.77 -110.34 1683.81 -120.293 1671.54 -120.293C1659.26 -120.293 1649.31 -110.34 1649.31 -98.0626L1649.31 134.286" stroke="#D099FF" stroke-width="28.6778"/>
<path d="M315.501 96.1794V157.769C315.501 170.047 305.548 180 293.271 180C280.993 180 271.04 170.047 271.04 157.769V96.1794" stroke="#D099FF" stroke-width="28.6778"/>
<path d="M48.7468 96.1787V157.769C48.7468 170.046 38.7938 179.999 26.5161 179.999C14.2385 179.999 4.28547 170.046 4.28547 157.769V96.1787" stroke="#D099FF" stroke-width="28.6778"/>
<path d="M-40.1797 -116.178L-40.1797 -177.768C-40.1797 -190.045 -30.2267 -199.998 -17.949 -199.998C-5.67134 -199.998 4.28167 -190.045 4.28167 -177.768L4.2817 99.0576" stroke="#D099FF" stroke-width="28.6778"/>
<path d="M137.655 16.4818V78.0717C137.655 90.3494 127.702 100.302 115.425 100.302C103.147 100.302 93.1939 90.3494 93.1939 78.0717V16.4818" stroke="#D099FF" stroke-width="28.6778"/>
<path d="M48.729 100.469L48.729 -98.0691C48.729 -110.347 58.682 -120.3 70.9597 -120.3C83.2373 -120.3 93.1904 -110.347 93.1904 -98.0691L93.1904 16.488" stroke="#D099FF" stroke-width="28.6778"/>
<path d="M226.573 16.4883V78.0783C226.573 90.3559 216.62 100.309 204.343 100.309C192.065 100.309 182.112 90.3559 182.112 78.0783V16.4883" stroke="#D099FF" stroke-width="28.6778"/>
<path d="M137.675 31.9147L137.675 -29.6752C137.675 -41.9528 147.628 -51.9059 159.905 -51.9059C172.183 -51.9059 182.136 -41.9528 182.136 -29.6752L182.136 31.9147" stroke="#D099FF" stroke-width="28.6778"/>
<path d="M315.501 108.873L315.501 -177.769C315.501 -190.047 325.454 -200 337.732 -200C350.01 -200 359.963 -190.047 359.963 -177.769L359.963 96.3392" stroke="#D099FF" stroke-width="28.6778"/>
<path d="M226.574 49.4392L226.574 -98.0626C226.574 -110.34 236.527 -120.293 248.804 -120.293C261.082 -120.293 271.035 -110.34 271.035 -98.0626L271.035 134.286" stroke="#D099FF" stroke-width="28.6778"/>
</svg>
