<svg width="251" height="322" viewBox="0 0 251 322" fill="none" xmlns="http://www.w3.org/2000/svg">
<path d="M232.592 110.191C232.592 108.083 230.883 106.374 228.775 106.374C226.667 106.374 224.959 108.083 224.959 110.191L224.953 299.157C224.953 311.279 215.127 321.105 203.005 321.105C190.884 321.105 181.057 311.279 181.057 299.157L181.068 195.513C181.068 193.405 179.359 191.696 177.251 191.696C175.143 191.696 173.434 193.405 173.434 195.513L173.422 299.157C173.422 311.279 163.596 321.105 151.474 321.105C139.353 321.105 129.526 311.279 129.526 299.157L129.53 195.513C129.53 193.405 127.821 191.696 125.714 191.696C123.606 191.696 121.897 193.405 121.897 195.513L121.898 299.157C121.898 311.279 112.071 321.105 99.9498 321.105C87.8283 321.105 78.0019 311.279 78.0019 299.157L77.9994 195.513C77.9994 193.405 76.2906 191.696 74.1827 191.696C72.0748 191.696 70.366 193.405 70.366 195.513L70.3796 299.157C70.3796 311.279 60.5532 321.105 48.4318 321.105C36.3103 321.105 26.4839 311.279 26.4839 299.157L26.4877 227.784C26.4877 225.676 24.7789 223.967 22.671 223.967C20.5631 223.967 18.8543 225.676 18.8543 227.784V263.474H0.723145V227.784C0.723145 215.662 10.5495 205.836 22.671 205.836C34.7925 205.836 44.6189 215.662 44.6189 227.784L44.6151 299.157C44.6151 301.265 46.3238 302.974 48.4318 302.974C50.5397 302.974 52.2485 301.265 52.2485 299.157L52.2348 195.513C52.2348 183.391 62.0612 173.565 74.1827 173.565C86.3042 173.565 96.1306 183.391 96.1306 195.513L96.1331 299.157C96.1331 301.265 97.8419 302.974 99.9498 302.974C102.058 302.974 103.767 301.265 103.767 299.157L103.766 195.513C103.766 183.391 113.592 173.565 125.714 173.565C137.835 173.565 147.661 183.391 147.661 195.513L147.658 299.157C147.658 301.265 149.366 302.974 151.474 302.974C153.582 302.974 155.291 301.265 155.291 299.157L155.303 195.513C155.303 183.391 165.129 173.565 177.251 173.565C189.372 173.565 199.199 183.391 199.199 195.513L199.188 299.157C199.188 301.265 200.897 302.974 203.005 302.974C205.113 302.974 206.822 301.265 206.822 299.157L206.827 110.191C206.827 98.0695 216.654 88.2431 228.775 88.2431C240.897 88.2431 250.723 98.0695 250.723 110.191V145.881H232.592V110.191Z" fill="#FAF0FF"/>
<path fill-rule="evenodd" clip-rule="evenodd" d="M177.236 106.374C179.344 106.374 181.053 108.083 181.053 110.191V117.121H199.184V110.191C199.184 98.0695 189.358 88.2431 177.236 88.2431C165.115 88.2431 155.288 98.0695 155.288 110.191V117.121H173.419V110.191C173.419 108.083 175.128 106.374 177.236 106.374Z" fill="#FAF0FF"/>
<path fill-rule="evenodd" clip-rule="evenodd" d="M74.181 106.374C76.2889 106.374 77.9977 108.083 77.9977 110.191V117.121H96.1289V110.191C96.1289 98.0695 86.3025 88.2431 74.181 88.2431C62.0595 88.2431 52.2331 98.0695 52.2331 110.191V117.121H70.3643V110.191C70.3643 108.083 72.0731 106.374 74.181 106.374Z" fill="#FAF0FF"/>
<path fill-rule="evenodd" clip-rule="evenodd" d="M96.1314 48.3783L96.1314 83.098L78.0002 83.098L78.0002 48.3783C78.0002 22.0258 99.3631 0.662971 125.716 0.662969C152.068 0.662968 173.431 22.0259 173.431 48.3783L173.431 83.098L155.3 83.098L155.3 48.3783C155.3 32.0394 142.054 18.7941 125.716 18.7941C109.377 18.7941 96.1314 32.0394 96.1314 48.3783Z" fill="#FAF0FF"/>
</svg>
